<svg width="300" height="72" viewBox="0 0 334 72" fill="none" xmlns="http://www.w3.org/2000/svg">
<path d="M44.9487 37.6409H39.917V30.0823H57.6929C57.7222 30.5217 57.7368 30.8293 57.7368 31.0051C57.7515 31.1809 57.7661 31.364 57.7808 31.5544V32.4114C57.7808 34.2717 57.5977 35.9563 57.2314 37.4651C56.9385 38.886 56.4331 40.2336 55.7153 41.5081C54.0747 44.2766 51.958 46.3787 49.3652 47.8142C46.8018 49.2791 43.8574 50.0115 40.5322 50.0115C38.1592 50.0115 35.896 49.6086 33.7427 48.803C31.7358 48.012 29.8901 46.8108 28.2056 45.1995C26.6235 43.5881 25.4077 41.7864 24.5581 39.7942C23.7524 37.7874 23.3496 35.5681 23.3496 33.1365C23.3496 30.6609 23.7671 28.4417 24.6021 26.4788C25.3931 24.5012 26.5942 22.6995 28.2056 21.0735C29.729 19.55 31.5747 18.3489 33.7427 17.47C35.8374 16.6643 38.1006 16.2615 40.5322 16.2615C43.8135 16.2615 46.7432 16.9792 49.3213 18.4148C51.9287 19.8943 54.0234 22.011 55.6055 24.7649L45.3003 28.5881C44.7583 27.6653 44.0991 27.0061 43.3228 26.6106C42.5903 26.1565 41.7261 25.9294 40.73 25.9294C39.0161 25.9294 37.6465 26.574 36.6211 27.863C35.6104 29.1521 35.105 30.9099 35.105 33.1365C35.105 35.4509 35.6104 37.2087 36.6211 38.4099C37.6611 39.6697 39.1187 40.2996 40.9937 40.2996C42.0776 40.2996 42.9932 40.0725 43.7402 39.6184C44.4287 39.0911 44.8315 38.4319 44.9487 37.6409ZM222.356 37.6409H217.324V30.0823H235.1C235.129 30.5217 235.144 30.8293 235.144 31.0051C235.159 31.1809 235.173 31.364 235.188 31.5544V32.4114C235.188 34.2717 235.005 35.9563 234.639 37.4651C234.346 38.886 233.84 40.2336 233.123 41.5081C231.482 44.2766 229.365 46.3787 226.772 47.8142C224.209 49.2791 221.265 50.0115 217.939 50.0115C215.566 50.0115 213.303 49.6086 211.15 48.803C209.143 48.012 207.297 46.8108 205.613 45.1995C204.031 43.5881 202.815 41.7864 201.965 39.7942C201.16 37.7874 200.757 35.5681 200.757 33.1365C200.757 30.6609 201.174 28.4417 202.009 26.4788C202.8 24.5012 204.001 22.6995 205.613 21.0735C207.136 19.55 208.982 18.3489 211.15 17.47C213.245 16.6643 215.508 16.2615 217.939 16.2615C221.221 16.2615 224.15 16.9792 226.729 18.4148C229.336 19.8943 231.431 22.011 233.013 24.7649L222.708 28.5881C222.166 27.6653 221.506 27.0061 220.73 26.6106C219.998 26.1565 219.133 25.9294 218.137 25.9294C216.423 25.9294 215.054 26.574 214.028 27.863C213.018 29.1521 212.512 30.9099 212.512 33.1365C212.512 35.4509 213.018 37.2087 214.028 38.4099C215.068 39.6697 216.526 40.2996 218.401 40.2996C219.485 40.2996 220.4 40.0725 221.147 39.6184C221.836 39.0911 222.239 38.4319 222.356 37.6409Z" fill="#FB8122"/>
<path d="M71.0522 37.7288C71.0522 38.7249 71.3232 39.5012 71.8652 40.0579C72.3486 40.6584 73.0225 40.9587 73.8867 40.9587C74.7803 40.9587 75.4688 40.6584 75.9521 40.0579C76.4648 39.4719 76.7212 38.6956 76.7212 37.7288C76.7212 36.7327 76.4648 35.9343 75.9521 35.3337C75.3955 34.7332 74.707 34.4329 73.8867 34.4329C73.0518 34.4329 72.3779 34.7332 71.8652 35.3337C71.3232 35.9197 71.0522 36.718 71.0522 37.7288ZM77.0728 49.1545V45.7268C75.9448 47.2356 74.7949 48.3196 73.623 48.9788C72.3779 49.6672 71.0522 50.0115 69.646 50.0115C67.0239 50.0115 64.834 48.8835 63.0762 46.6277C62.2266 45.5583 61.582 44.2913 61.1426 42.8264C60.7031 41.3469 60.4834 39.7356 60.4834 37.9924C60.4834 34.2864 61.333 31.3201 63.0322 29.0935C64.7021 26.8376 66.9067 25.7097 69.646 25.7097C71.0669 25.7097 72.3413 26.01 73.4692 26.6106C74.6265 27.2551 75.6958 28.2 76.6772 29.4451V26.4348H87.2461V49.1545H77.0728ZM91.9263 49.1545V26.4348H102.451V29.6208C103.286 28.3171 104.246 27.3284 105.33 26.6545C106.355 26.0247 107.542 25.7097 108.889 25.7097C110.471 25.7097 111.804 26.0979 112.888 26.8743C113.928 27.6506 114.785 28.8665 115.459 30.5217C116.309 28.9397 117.371 27.7385 118.645 26.9182C119.846 26.1125 121.245 25.7097 122.842 25.7097C125.068 25.7097 126.848 26.4421 128.181 27.907C129.5 29.4011 130.159 31.386 130.159 33.8616V49.1545H119.502V37.7288C119.502 36.5569 119.399 35.7732 119.194 35.3777C118.945 34.9675 118.579 34.7625 118.096 34.7625C117.48 34.7625 117.048 34.9968 116.799 35.4656C116.506 35.949 116.36 36.7034 116.36 37.7288V49.1545H105.813V37.7288C105.813 36.5862 105.725 35.8025 105.549 35.3777C105.315 34.9675 104.941 34.7625 104.429 34.7625C103.828 34.7625 103.381 35.0042 103.088 35.4875C102.81 35.9563 102.671 36.7034 102.671 37.7288V49.1545H91.9263ZM160.371 39.6184H144.705V39.97C144.705 41.0833 144.917 41.9402 145.342 42.5408C145.723 43.1121 146.353 43.3977 147.231 43.3977C147.759 43.3977 148.206 43.2439 148.572 42.9363C148.953 42.658 149.253 42.2258 149.473 41.6399L159.69 42.321C158.796 44.7673 157.251 46.6716 155.054 48.0339C152.871 49.3523 150.205 50.0115 147.056 50.0115C145.298 50.0115 143.657 49.7405 142.134 49.1985C140.508 48.6125 139.131 47.8362 138.003 46.8694C136.626 45.6536 135.579 44.2839 134.861 42.7605C134.128 41.1785 133.762 39.5452 133.762 37.8606C133.762 36.1028 134.143 34.4548 134.905 32.9167C135.242 32.1404 135.659 31.4299 136.157 30.7854C136.655 30.1409 137.271 29.4963 138.003 28.8518C139.248 27.7825 140.61 27.0061 142.09 26.5227C143.613 25.9807 145.269 25.7097 147.056 25.7097C148.242 25.7097 149.399 25.8342 150.527 26.0833C151.655 26.3323 152.688 26.6912 153.625 27.1599C155.486 28.1121 157.09 29.533 158.438 31.4226C159.111 32.3894 159.602 33.4368 159.91 34.5647C160.247 35.7366 160.415 36.9963 160.415 38.344V39.113C160.415 39.3621 160.4 39.5305 160.371 39.6184ZM144.792 34.6746L149.802 34.7185C149.729 33.7957 149.502 33.1292 149.121 32.719C148.711 32.2795 148.11 32.0598 147.319 32.0598C146.646 32.0598 146.074 32.2795 145.605 32.719C145.195 33.2024 144.924 33.8542 144.792 34.6746ZM163.865 49.1545V26.4348H174.565V29.6208C175.503 28.3464 176.565 27.3577 177.751 26.6545C178.923 26.0247 180.22 25.7097 181.641 25.7097H182.124C182.271 25.7097 182.373 25.7244 182.432 25.7537V36.7839C181.831 36.4617 181.267 36.2053 180.74 36.0149C180.183 35.8684 179.714 35.7952 179.333 35.7952C177.927 35.7952 176.851 36.1833 176.104 36.9597C175.312 37.7507 174.917 38.8127 174.917 40.1458V49.1545H163.865ZM248.459 37.7288C248.459 38.7249 248.73 39.5012 249.272 40.0579C249.756 40.6584 250.43 40.9587 251.294 40.9587C252.188 40.9587 252.876 40.6584 253.359 40.0579C253.872 39.4719 254.128 38.6956 254.128 37.7288C254.128 36.7327 253.872 35.9343 253.359 35.3337C252.803 34.7332 252.114 34.4329 251.294 34.4329C250.459 34.4329 249.785 34.7332 249.272 35.3337C248.73 35.9197 248.459 36.718 248.459 37.7288ZM254.48 49.1545V45.7268C253.352 47.2356 252.202 48.3196 251.03 48.9788C249.785 49.6672 248.459 50.0115 247.053 50.0115C244.431 50.0115 242.241 48.8835 240.483 46.6277C239.634 45.5583 238.989 44.2913 238.55 42.8264C238.11 41.3469 237.891 39.7356 237.891 37.9924C237.891 34.2864 238.74 31.3201 240.439 29.0935C242.109 26.8376 244.314 25.7097 247.053 25.7097C248.474 25.7097 249.749 26.01 250.876 26.6106C252.034 27.2551 253.103 28.2 254.084 29.4451V26.4348H264.653V49.1545H254.48ZM270.806 49.1545V34.8064H267.708V26.4348H270.806V18.9202H281.836V26.4348H284.978V34.8064H281.836V49.1545H270.806ZM313.696 39.6184H298.03V39.97C298.03 41.0833 298.242 41.9402 298.667 42.5408C299.048 43.1121 299.678 43.3977 300.557 43.3977C301.084 43.3977 301.531 43.2439 301.897 42.9363C302.278 42.658 302.578 42.2258 302.798 41.6399L313.015 42.321C312.122 44.7673 310.576 46.6716 308.379 48.0339C306.196 49.3523 303.53 50.0115 300.381 50.0115C298.623 50.0115 296.982 49.7405 295.459 49.1985C293.833 48.6125 292.456 47.8362 291.328 46.8694C289.951 45.6536 288.904 44.2839 288.186 42.7605C287.454 41.1785 287.087 39.5452 287.087 37.8606C287.087 36.1028 287.468 34.4548 288.23 32.9167C288.567 32.1404 288.984 31.4299 289.482 30.7854C289.98 30.1409 290.596 29.4963 291.328 28.8518C292.573 27.7825 293.936 27.0061 295.415 26.5227C296.938 25.9807 298.594 25.7097 300.381 25.7097C301.567 25.7097 302.725 25.8342 303.853 26.0833C304.98 26.3323 306.013 26.6912 306.951 27.1599C308.811 28.1121 310.415 29.533 311.763 31.4226C312.437 32.3894 312.927 33.4368 313.235 34.5647C313.572 35.7366 313.74 36.9963 313.74 38.344V39.113C313.74 39.3621 313.726 39.5305 313.696 39.6184ZM298.118 34.6746L303.127 34.7185C303.054 33.7957 302.827 33.1292 302.446 32.719C302.036 32.2795 301.436 32.0598 300.645 32.0598C299.971 32.0598 299.399 32.2795 298.931 32.719C298.521 33.2024 298.25 33.8542 298.118 34.6746Z" fill="white"/>
<path d="M334 71.6855H297.244V63.4453H326.304V7.9904H334V71.6855Z" fill="#FB8122"/>
<path d="M334 71.6855H297.244V63.4453H326.304V7.9904H334V71.6855Z" fill="#FB8122"/>
<path d="M0.000171888 2.14412e-05L0.000171888 39.7239L9.19374 39.7239L9.19374 8.31774L67.8047 8.31774L67.8047 2.14412e-05L0.000171888 2.14412e-05Z" fill="#FB8122"/>
<path d="M0.000171888 2.14412e-05L0.000171888 39.7239L9.19374 39.7239L9.19374 8.31774L67.8047 8.31774L67.8047 2.14412e-05L0.000171888 2.14412e-05Z" fill="#FB8122"/>
</svg>
