<svg width="52" height="59" viewBox="0 0 52 59" fill="none" xmlns="http://www.w3.org/2000/svg">
<path d="M46.4286 3.6875H5.57143C2.49554 3.6875 0 6.16504 0 9.21875V49.7812C0 52.835 2.49554 55.3125 5.57143 55.3125H46.4286C49.5045 55.3125 52 52.835 52 49.7812V9.21875C52 6.16504 49.5045 3.6875 46.4286 3.6875ZM32.1866 47.9029C31.2116 48.0758 30.8518 47.4766 30.8518 46.9811C30.8518 46.3588 30.875 43.1783 30.875 40.6086C30.875 38.8109 30.2714 37.6701 29.5634 37.0709C33.858 36.5984 38.3848 36.0107 38.3848 28.6473C38.3848 26.55 37.6304 25.5014 36.4 24.1531C36.5973 23.6576 37.2589 21.618 36.2027 18.9676C34.5893 18.4721 30.8982 21.0303 30.8982 21.0303C29.3661 20.6039 27.7062 20.385 26.0696 20.385C24.433 20.385 22.7732 20.6039 21.2411 21.0303C21.2411 21.0303 17.55 18.4721 15.9366 18.9676C14.8804 21.6064 15.5304 23.6461 15.7393 24.1531C14.5089 25.5014 13.9286 26.55 13.9286 28.6473C13.9286 35.9762 18.258 36.5984 22.5527 37.0709C21.9955 37.5664 21.4964 38.4191 21.3223 39.6406C20.2196 40.1361 17.3991 40.9889 15.7161 38.0389C14.6598 36.2182 12.7562 36.0684 12.7562 36.0684C10.8759 36.0453 12.6286 37.2438 12.6286 37.2438C13.8821 37.8199 14.7643 40.0324 14.7643 40.0324C15.8902 43.4549 21.2759 42.3025 21.2759 42.3025C21.2759 43.9043 21.2991 46.5086 21.2991 46.9811C21.2991 47.4766 20.9509 48.0758 19.9643 47.9029C12.3036 45.3563 6.94107 38.1195 6.94107 29.6613C6.94107 19.0828 15.0893 11.051 25.7446 11.051C36.4 11.051 45.0357 19.0828 45.0357 29.6613C45.0473 38.1195 39.8473 45.3678 32.1866 47.9029ZM20.8 40.8621C20.5795 40.9082 20.3705 40.816 20.3473 40.6662C20.3241 40.4934 20.475 40.3436 20.6955 40.2975C20.9161 40.2744 21.125 40.3666 21.1482 40.5164C21.183 40.6662 21.0321 40.816 20.8 40.8621ZM19.6973 40.7584C19.6973 40.9082 19.5232 41.035 19.2911 41.035C19.0357 41.058 18.8616 40.9313 18.8616 40.7584C18.8616 40.6086 19.0357 40.4818 19.2679 40.4818C19.4884 40.4588 19.6973 40.5855 19.6973 40.7584ZM18.1071 40.6316C18.0607 40.7814 17.8286 40.8506 17.6312 40.7814C17.4107 40.7354 17.2598 40.5625 17.3062 40.4127C17.3527 40.2629 17.5848 40.1938 17.7821 40.2398C18.0143 40.309 18.1652 40.4818 18.1071 40.6316ZM16.6795 40.0094C16.575 40.1361 16.3545 40.1131 16.1804 39.9402C16.0062 39.7904 15.9598 39.5715 16.0759 39.4678C16.1804 39.341 16.4009 39.3641 16.575 39.5369C16.7259 39.6867 16.7839 39.9172 16.6795 40.0094ZM15.6232 38.9607C15.5188 39.0299 15.3214 38.9607 15.1937 38.7879C15.0661 38.615 15.0661 38.4191 15.1937 38.3385C15.3214 38.2348 15.5188 38.3154 15.6232 38.4883C15.7509 38.6611 15.7509 38.8686 15.6232 38.9607ZM14.8688 37.843C14.7643 37.9467 14.5902 37.8891 14.4625 37.7738C14.3348 37.624 14.3116 37.4512 14.4161 37.3705C14.5205 37.2668 14.6946 37.3244 14.8223 37.4396C14.95 37.5895 14.9732 37.7623 14.8688 37.843ZM14.0911 36.9902C14.0446 37.0939 13.8937 37.117 13.7661 37.0363C13.6152 36.9672 13.5455 36.8404 13.592 36.7367C13.6384 36.6676 13.7661 36.633 13.917 36.6906C14.0679 36.7713 14.1375 36.898 14.0911 36.9902Z" fill="#FB8122"/>
</svg>
