<svg width="51" height="51" viewBox="0 0 51 51" fill="none" xmlns="http://www.w3.org/2000/svg">
<path fill-rule="evenodd" clip-rule="evenodd" d="M46.2187 0H4.78125C2.15156 0 0 2.15156 0 4.78125V46.2188C0 48.8484 2.15156 51 4.78125 51H46.2187C48.8484 51 50.9999 48.8484 50.9999 46.2188V4.78125C50.9999 2.15156 48.8484 0 46.2187 0ZM19.1243 41.4374H12.7505V19.1244H19.1243V41.4374ZM15.9365 15.9365C14.1746 15.9365 12.7495 14.5115 12.7495 12.7495C12.7495 10.9867 14.1745 9.5617 15.9365 9.5617C17.6993 9.5617 19.1243 10.9867 19.1243 12.7495C19.1243 14.5114 17.6993 15.9365 15.9365 15.9365ZM41.4374 41.4374H35.0635V28.6879C35.0635 26.9251 33.6377 25.5001 31.8757 25.5001C30.1129 25.5001 28.6879 26.9251 28.6879 28.6879V41.4374H22.3121V19.1244H28.6879V23.0802C30.0008 21.275 32.015 19.1244 34.2655 19.1244C38.2307 19.1244 41.4373 22.6915 41.4373 27.0935V41.4374H41.4374Z" fill="#FB8122"/>
</svg>
