<svg width="153" height="147" viewBox="0 0 153 147" fill="none" xmlns="http://www.w3.org/2000/svg">
<path d="M82.8964 146.696H0L0 127.718H65.5389V-0.000106812H82.8964V73.3478V146.696Z" fill="#B7733E"/>
<path d="M82.8964 146.696H0L0 127.718H65.5389V-0.000106812H82.8964V73.3478V146.696Z" fill="#B7733E"/>
<path d="M60.3264 123.208H44.894V119.872H57.0951V97.4206H60.3264V123.208Z" fill="#B7733E"/>
<path d="M60.3264 123.208H44.894V119.872H57.0951V97.4206H60.3264V123.208Z" fill="#B7733E"/>
<path d="M0.000146444 55.208L0.000146444 146.696L20.7346 146.696V74.3645L152.921 74.3645L152.921 55.208L0.000146444 55.208Z" fill="#FB8122"/>
<path d="M0.000146444 55.208L0.000146444 146.696L20.7346 146.696V74.3645L152.921 74.3645L152.921 55.208L0.000146444 55.208Z" fill="#FB8122"/>
<rect x="42.0879" y="84.5276" width="8.41766" height="18.6246" fill="white"/>
<rect x="28.0586" y="84.5276" width="8.41766" height="18.6246" fill="white"/>
</svg>
