<svg width="42" height="42" viewBox="0 0 42 42" fill="none" xmlns="http://www.w3.org/2000/svg">
<path d="M13.815 32.346L9.68311 30.7504C10.2353 32.9689 12.2387 34.6127 14.6305 34.6127C17.4461 34.6127 19.732 32.33 19.732 29.5112C19.732 26.6987 17.4461 24.4128 14.6305 24.4128C13.616 24.4128 12.6721 24.7114 11.8791 25.2219L15.9597 26.795C17.4911 27.389 18.2552 29.1098 17.6645 30.6413C17.0705 32.1759 15.3497 32.9432 13.815 32.346Z" fill="#FB8122"/>
<path d="M29.5554 20.4313C33.042 20.4313 35.8769 17.5965 35.8769 14.1098C35.8769 10.6232 33.042 7.78833 29.5554 7.78833C26.072 7.78833 23.2339 10.6232 23.2339 14.1098C23.2339 17.5933 26.072 20.4313 29.5554 20.4313ZM29.5554 9.65685C32.0147 9.65685 34.0116 11.6538 34.0116 14.1098C34.0116 16.5659 32.0147 18.5628 29.5554 18.5628C27.0994 18.5628 25.1024 16.5659 25.1024 14.1098C25.1024 11.6538 27.0994 9.65685 29.5554 9.65685Z" fill="#FB8122"/>
<path d="M36.494 0.00366211H5.50604C2.46247 0.00366211 0 2.46934 0 5.5097V20.628L8.01024 23.723C9.56092 21.9283 11.834 20.7789 14.3831 20.7372L19.1957 14.3162C19.1957 8.6239 23.8124 4.01039 29.5015 4.01039C35.1937 4.01039 39.8072 8.6239 39.8072 14.3162C39.8072 17.44 38.4139 20.2396 36.2179 22.1306C34.4103 23.6812 32.0667 24.6219 29.5015 24.6219C29.2318 24.6219 28.9653 24.6091 28.702 24.5866L23.1093 28.802C23.1222 28.9786 23.1286 29.1584 23.1286 29.3382C23.1286 34.0897 19.276 37.9488 14.5244 37.9488C9.77282 37.9488 5.9202 34.0929 5.9202 29.3382C5.9202 29.3253 5.9202 29.3061 5.9202 29.29L0 27.0041V36.4912C0 39.5316 2.46568 41.9972 5.50604 41.9972H36.494C39.5343 41.9972 42 39.5316 42 36.4912V5.51291C42 2.47255 39.5343 0.00366211 36.494 0.00366211Z" fill="#FB8122"/>
</svg>
